<svg viewBox="0 0 330 200" xmlns="http://www.w3.org/2000/svg"><g><g><g><g><g><line x1="30.78125" y1="174.82365226465035" x2="25.78125" y2="174.82365226465035" style="visibility: inherit;" fill="rgb(0, 0, 0)" stroke="rgb(204, 204, 204)" stroke-width="1px"></line><line x1="30.78125" y1="165.36269938339166" x2="25.78125" y2="165.36269938339166" style="visibility: inherit;" fill="rgb(0, 0, 0)" stroke="rgb(204, 204, 204)" stroke-width="1px"></line><line x1="30.78125" y1="157.01754751569513" x2="25.78125" y2="157.01754751569513" style="visibility: inherit;" fill="rgb(0, 0, 0)" stroke="rgb(204, 204, 204)" stroke-width="1px"></line><line x1="30.78125" y1="149.55255479307183" x2="25.78125" y2="149.55255479307183" style="visibility: inherit;" fill="rgb(0, 0, 0)" stroke="rgb(204, 204, 204)" stroke-width="1px"></line><line x1="30.78125" y1="100.44176004913527" x2="25.78125" y2="100.44176004913527" style="visibility: inherit;" fill="rgb(0, 0, 0)" stroke="rgb(204, 204, 204)" stroke-width="1px"></line><line x1="30.78125" y1="71.71378674331869" x2="25.78125" y2="71.71378674331869" style="visibility: inherit;" fill="rgb(0, 0, 0)" stroke="rgb(204, 204, 204)" stroke-width="1px"></line><line x1="30.78125" y1="51.33096530519867" x2="25.78125" y2="51.33096530519867" style="visibility: inherit;" fill="rgb(0, 0, 0)" stroke="rgb(204, 204, 204)" stroke-width="1px"></line><line x1="30.78125" y1="35.52082071487889" x2="25.78125" y2="35.52082071487889" style="visibility: inherit;" fill="rgb(0, 0, 0)" stroke="rgb(204, 204, 204)" stroke-width="1px"></line><line x1="30.78125" y1="22.602991999382137" x2="25.78125" y2="22.602991999382137" style="visibility: inherit;" fill="rgb(0, 0, 0)" stroke="rgb(204, 204, 204)" stroke-width="1px"></line><line x1="30.78125" y1="11.681123442520732" x2="25.78125" y2="11.681123442520732" style="visibility: inherit;" fill="rgb(0, 0, 0)" stroke="rgb(204, 204, 204)" stroke-width="1px"></line><line x1="30.78125" y1="2.220170561262113" x2="25.78125" y2="2.220170561262113" style="visibility: inherit;" fill="rgb(0, 0, 0)" stroke="rgb(204, 204, 204)" stroke-width="1px"></line></g><g transform="translate(20.78125, 0)"><text x="0" y="174.82365226465035" dx="0em" dy="0.3em" style="text-anchor: end; visibility: hidden; font-family: Roboto, sans-serif; font-size: 12px; font-weight: 200;" fill="rgb(33, 33, 33)" stroke="none" stroke-width="1px">7</text><text x="0" y="165.36269938339166" dx="0em" dy="0.3em" style="text-anchor: end; visibility: inherit; font-family: Roboto, sans-serif; font-size: 12px; font-weight: 200;" fill="rgb(33, 33, 33)" stroke="none" stroke-width="1px">8</text><text x="0" y="157.01754751569513" dx="0em" dy="0.3em" style="text-anchor: end; visibility: hidden; font-family: Roboto, sans-serif; font-size: 12px; font-weight: 200;" fill="rgb(33, 33, 33)" stroke="none" stroke-width="1px">9</text><text x="0" y="149.55255479307183" dx="0em" dy="0.3em" style="text-anchor: end; visibility: hidden; font-family: Roboto, sans-serif; font-size: 12px; font-weight: 200;" fill="rgb(33, 33, 33)" stroke="none" stroke-width="1px">10</text><text x="0" y="100.44176004913527" dx="0em" dy="0.3em" style="text-anchor: end; visibility: inherit; font-family: Roboto, sans-serif; font-size: 12px; font-weight: 200;" fill="rgb(33, 33, 33)" stroke="none" stroke-width="1px">20</text><text x="0" y="71.71378674331869" dx="0em" dy="0.3em" style="text-anchor: end; visibility: hidden; font-family: Roboto, sans-serif; font-size: 12px; font-weight: 200;" fill="rgb(33, 33, 33)" stroke="none" stroke-width="1px">30</text><text x="0" y="51.33096530519867" dx="0em" dy="0.3em" style="text-anchor: end; visibility: hidden; font-family: Roboto, sans-serif; font-size: 12px; font-weight: 200;" fill="rgb(33, 33, 33)" stroke="none" stroke-width="1px">40</text><text x="0" y="35.52082071487889" dx="0em" dy="0.3em" style="text-anchor: end; visibility: inherit; font-family: Roboto, sans-serif; font-size: 12px; font-weight: 200;" fill="rgb(33, 33, 33)" stroke="none" stroke-width="1px">50</text><text x="0" y="22.602991999382137" dx="0em" dy="0.3em" style="text-anchor: end; visibility: hidden; font-family: Roboto, sans-serif; font-size: 12px; font-weight: 200;" fill="rgb(33, 33, 33)" stroke="none" stroke-width="1px">60</text><text x="0" y="11.681123442520732" dx="0em" dy="0.3em" style="text-anchor: end; visibility: hidden; font-family: Roboto, sans-serif; font-size: 12px; font-weight: 200;" fill="rgb(33, 33, 33)" stroke="none" stroke-width="1px">70</text><text x="0" y="2.220170561262113" dx="0em" dy="0.3em" style="text-anchor: end; visibility: hidden; font-family: Roboto, sans-serif; font-size: 12px; font-weight: 200;" fill="rgb(33, 33, 33)" stroke="none" stroke-width="1px">80</text></g><line x1="30.78125" y1="0" x2="30.78125" y2="177" fill="rgb(0, 0, 0)" stroke="rgb(204, 204, 204)" stroke-width="1px"></line></g></g><g transform="translate(30, 0)" clip-path="url(#clip_0)"><clipPath id="clip_0"><rect width="299" height="177"></rect></clipPath><g><g><g><line x1="0" y1="0" x2="0" y2="177" fill="rgb(0, 0, 0)" stroke="rgb(66, 66, 66)" stroke-width="1px" opacity="0.25"></line><line x1="24.934895833333332" y1="0" x2="24.934895833333332" y2="177" fill="rgb(0, 0, 0)" stroke="rgb(66, 66, 66)" stroke-width="1px" opacity="0.25"></line><line x1="49.869791666666664" y1="0" x2="49.869791666666664" y2="177" fill="rgb(0, 0, 0)" stroke="rgb(66, 66, 66)" stroke-width="1px" opacity="0.25"></line><line x1="74.8046875" y1="0" x2="74.8046875" y2="177" fill="rgb(0, 0, 0)" stroke="rgb(66, 66, 66)" stroke-width="1px" opacity="0.25"></line><line x1="99.73958333333333" y1="0" x2="99.73958333333333" y2="177" fill="rgb(0, 0, 0)" stroke="rgb(66, 66, 66)" stroke-width="1px" opacity="0.25"></line><line x1="124.67447916666667" y1="0" x2="124.67447916666667" y2="177" fill="rgb(0, 0, 0)" stroke="rgb(66, 66, 66)" stroke-width="1px" opacity="0.25"></line><line x1="149.609375" y1="0" x2="149.609375" y2="177" fill="rgb(0, 0, 0)" stroke="rgb(66, 66, 66)" stroke-width="1px" opacity="0.25"></line><line x1="174.54427083333334" y1="0" x2="174.54427083333334" y2="177" fill="rgb(0, 0, 0)" stroke="rgb(66, 66, 66)" stroke-width="1px" opacity="0.25"></line><line x1="199.47916666666666" y1="0" x2="199.47916666666666" y2="177" fill="rgb(0, 0, 0)" stroke="rgb(66, 66, 66)" stroke-width="1px" opacity="0.25"></line><line x1="224.4140625" y1="0" x2="224.4140625" y2="177" fill="rgb(0, 0, 0)" stroke="rgb(66, 66, 66)" stroke-width="1px" opacity="0.25"></line><line x1="249.34895833333334" y1="0" x2="249.34895833333334" y2="177" fill="rgb(0, 0, 0)" stroke="rgb(66, 66, 66)" stroke-width="1px" opacity="0.25"></line><line x1="274.28385416666663" y1="0" x2="274.28385416666663" y2="177" fill="rgb(0, 0, 0)" stroke="rgb(66, 66, 66)" stroke-width="1px" opacity="0.25"></line><line x1="299.21875" y1="0" x2="299.21875" y2="177" fill="rgb(0, 0, 0)" stroke="rgb(66, 66, 66)" stroke-width="1px" opacity="0.25"></line></g><g><line x1="0" y1="174.82365226465035" x2="299.21875" y2="174.82365226465035" fill="rgb(0, 0, 0)" stroke="rgb(66, 66, 66)" stroke-width="1px" opacity="0.25"></line><line x1="0" y1="165.36269938339166" x2="299.21875" y2="165.36269938339166" fill="rgb(0, 0, 0)" stroke="rgb(66, 66, 66)" stroke-width="1px" opacity="0.25"></line><line x1="0" y1="157.01754751569513" x2="299.21875" y2="157.01754751569513" fill="rgb(0, 0, 0)" stroke="rgb(66, 66, 66)" stroke-width="1px" opacity="0.25"></line><line x1="0" y1="149.55255479307183" x2="299.21875" y2="149.55255479307183" fill="rgb(0, 0, 0)" stroke="rgb(66, 66, 66)" stroke-width="1px" opacity="0.25"></line><line x1="0" y1="100.44176004913527" x2="299.21875" y2="100.44176004913527" fill="rgb(0, 0, 0)" stroke="rgb(66, 66, 66)" stroke-width="1px" opacity="0.25"></line><line x1="0" y1="71.71378674331869" x2="299.21875" y2="71.71378674331869" fill="rgb(0, 0, 0)" stroke="rgb(66, 66, 66)" stroke-width="1px" opacity="0.25"></line><line x1="0" y1="51.33096530519867" x2="299.21875" y2="51.33096530519867" fill="rgb(0, 0, 0)" stroke="rgb(66, 66, 66)" stroke-width="1px" opacity="0.25"></line><line x1="0" y1="35.52082071487889" x2="299.21875" y2="35.52082071487889" fill="rgb(0, 0, 0)" stroke="rgb(66, 66, 66)" stroke-width="1px" opacity="0.25"></line><line x1="0" y1="22.602991999382137" x2="299.21875" y2="22.602991999382137" fill="rgb(0, 0, 0)" stroke="rgb(66, 66, 66)" stroke-width="1px" opacity="0.25"></line><line x1="0" y1="11.681123442520732" x2="299.21875" y2="11.681123442520732" fill="rgb(0, 0, 0)" stroke="rgb(66, 66, 66)" stroke-width="1px" opacity="0.25"></line><line x1="0" y1="2.220170561262113" x2="299.21875" y2="2.220170561262113" fill="rgb(0, 0, 0)" stroke="rgb(66, 66, 66)" stroke-width="1px" opacity="0.25"></line></g></g></g><g><g><line x1="24.934895833333332" y1="0" x2="24.934895833333332" y2="177" fill="rgb(0, 0, 0)" stroke="rgb(153, 153, 153)" stroke-width="1.5px"></line></g></g><g><g><g><g><g><path stroke="rgb(255, 112, 67)" stroke-width="2px" d="M35.08838541666667,179.65075996361747L35.38760416666667,175.2656517655008L35.841419270833335,179.3331261373677L35.90126302083333,173.88757226702364L36.060846354166664,168.5987776626157L36.09076822916666,160.20914065540748L36.215442708333335,159.57693041938538L36.43985677083333,158.0996679513523L36.848789062499996,155.0305078791877L37.08317708333333,153.06526588286732L37.167955729166664,151.6586735734674L37.1779296875,149.9658724432444L37.20286458333334,153.94282292191392L37.3275390625,151.67851110352484L37.33252604166667,151.56116837236206L37.39236979166667,150.66401194677934L37.4173046875,148.29969734250724L37.56192708333333,147.61576845016694L37.636731770833336,147.71926845106657L38.32493489583333,147.07343041980022L38.59921875,146.83588042410202L39.73126302083333,146.97984171905478L40.08533854166667,147.4861732054865L40.100299479166665,147.22570722097325L40.38954427083333,146.9803583706516L40.69873697916667,147.85633478964434L41.04283854166666,147.94644352660364L41.11265625,148.031754500346L41.122630208333334,148.11252432701767L41.12761718749999,145.9876927138195L41.41686197916666,146.17423015329211L42.28958333333333,147.81684065978374L42.977786458333334,151.71428571428575L42.98776041666667,153.9771956689487L43.237109374999996,154.54180872418326L43.59118489583333,156.73689714790763L43.850507812500005,153.87815682947053L43.955234375,157.76620519947704L43.99014322916666,156.8822449484916L44.52375,157.73302436926556L44.663385416666664,158.97800386343584L44.803020833333335,156.33285075190827L45.062343750000004,155.13265130930873L45.37153645833334,155.64206940941196L45.86026041666666,153.68537021736572L46.01485677083333,151.88189474238007L46.03979166666667,151.3678406265424L46.46368489583333,150.8846860973716L46.473658854166665,151.19802686984445L46.87760416666667,151.1095088260538L47.33640625,153.77206902725715L47.421184895833335,157.64420433157883L47.52591145833333,158.88859944502633L48.19416666666667,156.25876455703923L48.21411458333333,155.0669204175039L48.25401041666667,153.55719930496272L48.81255208333333,152.1569770173052L48.88236979166666,151.6274521535857L49.071875,150.7459113709476L49.131718750000005,148.05448813814323L49.341171875,148.8748342873081L49.72516927083333,146.7079853002637L50.119140625,146.85619836685217L50.12911458333333,142.0905479969385L50.39841145833333,141.11902813535113L50.538046875,139.22913209240997L51.061679687499996,139.74090629639858L51.59029947916667,139.89997927490396L51.6601171875,138.74763083750616L51.96432291666667,135.48201744729673L52.60764322916667,134.92834166318514L53.25595052083333,134.71229398106723L53.47537760416667,135.11897909709393L53.89927083333333,135.19858851739394L53.999010416666664,134.66213918669527L54.17854166666666,133.85607416825357L54.213450520833334,135.21828141937382L54.39298177083333,136.84619951301323L54.497708333333335,139.06825472613144L54.80690104166667,139.5870504417599L54.906640625,140.08183609660816L55.4601953125,140.88529285243357L55.510065104166664,140.6533491095778L55.85416666666667,140.43441147743718L55.91899739583334,139.24634983224422L55.948919270833336,140.745299600497L56.01375,139.53588346037455L56.2980078125,141.0252384985698L56.412708333333335,138.82117997156342L56.731874999999995,140.6644796397313L57.45,141.10877249366223L57.719296875,139.87434742093416L57.86391927083333,139.37268469621495L58.13321614583334,139.22483482032783L58.32770833333333,139.4099027508357L58.34266927083333,138.93590909844687L58.40251302083333,138.16935591438212L58.557109375,137.45102019067784L59.115651041666666,137.09176670057954L59.67419270833333,138.01859807644394L59.80385416666667,140.5423595405779L60.37236979166667,138.69981536168905L60.412265624999996,140.21611006051316L60.61673177083333,140.35072645521205L61.075533854166665,139.8206276372971L61.39470052083333,138.9979214291626L61.63407552083333,138.22754340922216L61.748776041666666,137.82321340132145L62.087890625,137.75971087643052L62.137760416666666,135.50981453474637L62.152721354166665,132.8472456766709L62.227526041666664,131.28011861329566L62.39209635416666,130.97377634443725L63.2997265625,130.11169891484573L63.633854166666666,131.3083816270971L63.77348958333334,131.0004312550501L63.823359374999995,127.06339348560289L63.99790364583333,127.81533644035567L64.78584635416667,130.8039968970431L65.15986979166667,131.10129986684046L65.72838541666667,130.51751630302238L65.93285156249999,132.2853584328873L66.49638020833333,132.50931198799748L66.64100260416667,132.42652897460977L66.6659375,133.53644184447577L66.7108203125,134.60379716336232L67.15964843750001,134.70999407061905L67.174609375,132.11761065999414L67.31424479166667,132.05596808102928L67.36411458333333,134.3822782962573L67.82790364583333,135.10981170478277L67.99746093750001,134.88385311514136L68.2966796875,132.27635622912288L68.91506510416667,131.03989163500611L69.209296875,129.88852859998912L69.33895833333334,129.6609243254674L69.35391927083333,128.3240020855227L69.45864583333334,128.18316525473423L69.49355468750001,125.86622293937441L69.78279947916667,124.26346705535077L69.81272135416667,121.25085989499358L70.0919921875,123.79182817043862L71.11432291666667,123.89234857997948L71.39359375000001,122.17851600078777L71.55317708333334,122.10610288198897L71.98704427083334,121.78338103673545L72.15161458333334,122.24121260132286L72.5455859375,121.40412673387709L72.58049479166667,119.38315177717678L72.64532552083332,119.95166347993714L72.94454427083333,120.24553553716002L73.09415364583333,119.2893438014702L73.20885416666667,117.91340046436211L73.29861979166667,118.30592243096703L74.02173177083334,119.90459019869031L74.3408984375,119.70619641071113L75.09393229166666,118.78531426626708L75.22359375,118.16485079196077L76.18109375,118.78818344856724L76.21600260416666,117.4478187393688L76.77953125,121.05457348855654L76.7944921875,119.79777931093514L76.89921875,118.62780342434607L77.19345052083334,117.5373693015333L77.407890625,117.46865071076459L77.83178385416666,117.88233890519618L77.98638020833333,118.03525020658167L78.06617187500001,114.881907469048L78.15095052083333,113.13393061195339L78.35042968750001,113.7474370014296L78.57983072916667,115.02198628033314L78.58481770833333,115.08663924874296L78.69453125,113.3230680702986L78.86907552083333,113.24997624000095L78.99873697916667,114.54227837559495L79.04361979166667,117.20120560659457L79.30294270833333,116.20612029476234L79.31790364583334,117.39113164019139L79.4874609375,116.14871186095978L79.50740885416667,115.2228287888548L79.62210937500001,115.97489351524509L79.65203125,118.85258433797263L79.66200520833333,118.46975073672726L79.89140625,117.62887400266253L80.30033854166666,117.07871550369933L80.39509114583333,118.47298076449144L80.43997395833333,114.58718892351433L80.77908854166667,115.36640166114715L80.7890625,114.95069844060171L81.08828125000001,115.9477211036826L81.8812109375,116.66853821059026L82.14552083333334,118.5600692865579L82.24526041666667,118.92158063532598L82.39985677083332,119.51096060726776L82.44473958333334,117.87867347501127L82.52951822916667,117.31342145934234L82.61429687500001,119.6781644371852L83.02322916666665,120.48195466771615L83.13792968749999,121.00023300353617L83.20774739583334,121.49456248523263L83.57678385416666,124.8211590128681L84.14529947916667,123.29544425451824L84.62404947916667,123.16230334981402L84.648984375,123.81556364887285L84.828515625,120.59433983102241L84.98311197916667,122.63178999479035L85.46684895833334,124.61681414490798L85.59651041666667,127.91954730235024L85.61645833333334,127.52514153502813L85.69624999999999,129.9452889331189L85.905703125,124.51746567226226L86.22486979166668,123.53222112315787L86.23983072916667,120.0896981782372L86.31962239583332,116.74023495982813L86.79837239583334,117.42653789941998L87.06268229166666,116.18166185788793L88.12490885416666,116.18538297982163L88.26454427083333,112.9798517468718L88.7931640625,112.92524343028131L89.1522265625,113.09769110373206L89.46141927083333,111.92410450094734L89.85040364583334,113.94138187542376L89.93518229166666,116.14013270860136L90.06983072916667,119.25999557337562L90.17455729166667,119.3420572829227L90.23440104166666,117.48313841843205L90.30920572916666,116.23432779676637L90.59346354166667,115.30285407553309L90.95751302083333,114.89087009344915L91.50608072916667,112.91795759848254L91.77039062499999,113.76736241506401L91.79033854166667,111.22365958782727L92.27906250000001,111.04391180559413L92.48851562499999,107.89215859884698L92.74285156250001,105.23200580836371L92.85755208333333,104.57065844492789L93.15178385416667,101.05081001523412L93.16674479166667,101.20794384051024L93.63552083333333,100.4124028962017L93.805078125,94.13193387923346L93.97962239583333,96.0227377288933L94.17411458333332,93.98608308350802L94.63291666666666,93.28812093110015L94.74263020833332,88.86751642808687L95.1515625,90.73350467436074L95.8547265625,88.6265412683066L96.1838671875,88.72663512533288L96.21877604166667,90.4333148457512L96.26365885416666,88.50902156707397L96.3484375,87.04380542119488L96.43820312499999,86.91387734566655L96.73243489583332,89.31308617816048L96.98178385416666,91.66257129634108L97.216171875,89.48013492891342L97.5303515625,88.1017487737898L97.904375,85.59204428412349L97.93429687499999,86.15202611976977L98.08390625,85.61224251161764L98.1287890625,83.31312617204598L98.17865885416667,82.64830536597844L98.6374609375,78.49435678437408L98.68234375,82.35268116512853L98.70229166666665,82.18084826613122L98.7870703125,81.72956147907415L99.10623697916667,83.48785870709305L99.20098958333334,81.79477351671207L99.87423177083333,83.99635970468644L100.18841145833333,83.58448134207684L100.4178125,79.46935323995777L100.63723958333333,77.66171189722822L101.06611979166667,79.95614887326579L101.35536458333333,80.76298204967422L102.09842447916667,84.62130636343879L102.1083984375,83.5782786074225L102.26798177083333,80.1654750939493L102.422578125,83.28307008417457L102.71680989583334,83.94645970548768L103.42994791666666,75.70427702286291L103.54963541666667,73.53393674665634L103.59451822916667,74.08046622746885L103.86880208333334,71.29067353412836L104.62183593750001,73.58960378950573L104.69165364583333,72.722999852054L105.20032552083335,70.91485480647948L105.30505208333332,62.99976757220747L105.96832031250001,60.81200303722853L106.3273828125,57.971013893985244L106.43709635416667,56.282035530213L106.521875,56.71628618523361L106.75127604166667,56.824990204242766L106.92083333333333,56.522864882451394L107.24498697916667,56.439443197767375L107.64394531250001,56.259819746138355L108.02295572916667,56.291222772020525L108.20248697916666,56.92794024531066L108.75604166666666,60.35843297290856L108.76102864583333,61.67308637632649L108.9305859375,60.01612934062198L109.00040364583334,59.10777463241496L109.20985677083333,61.759464916575396L110.04268229166668,63.02423756579868L110.19727864583334,66.30035534281427L110.3668359375,60.55397162352412L110.90542968749999,59.821845163524436L111.07,61.04759227467448L111.159765625,61.68292440013339L111.16973958333332,59.919174673265815L111.28942708333334,58.18494360764361L111.2944140625,55.577013499652836L111.309375,55.94410302571176L111.40412760416667,57.614709722971L111.578671875,57.67682410343394L111.73326822916667,55.809665972263254L111.92776041666666,55.26670377120526L111.97763020833332,51.95510127870898L112.42147135416666,54.231068589559456L112.4912890625,58.08939282909926L112.63591145833334,60.437170208070135L112.67580729166667,61.85787825593902L112.8204296875,56.35651870707758L113.314140625,56.88872025930188L114.4661328125,55.4794740360319L114.60576822916667,54.660551675854315L114.65065104166666,53.2155619941852L114.79028645833333,52.25321900355765L114.96483072916666,51.353774703532665L115.02467447916668,52.39315108447863L115.34384114583334,56.25147532066679L116.01708333333333,51.98656030394538L116.28638020833333,53.38666756439905L116.94964843749999,51.56029786757565L116.95463541666666,52.30549370746756L117.6528125,52.34867895656284L118.25623697916666,52.389599668126365L118.29114583333333,50.732634054462146L118.91451822916666,48.83497770951871L119.47804687499999,51.36599393014066L119.57279947916668,48.69142827921259L119.71243489583334,46.51105687381313L119.82214843749999,44.677045153238055L119.926875,42.15336946331403L120.26598958333332,41.13247103847103L120.53029947916666,40.50061104519723L120.81954427083333,42.51145517749527L121.03897135416668,46.369779411216605L122.10618489583334,46.36113787839152L122.19595052083334,47.67790617066401L122.3056640625,46.62620034834951L122.3355859375,47.3987352042637L122.87916666666668,45.842473028010104L122.948984375,48.51805930358235L123.00384114583333,47.1438170588076L123.27812499999999,50.72236215838559L123.33298177083334,49.37130638503722L123.36290364583333,49.108960228952796L123.65713541666666,48.139794244133896L123.79178385416667,50.497844452180345L123.906484375,52.137859345134316L124.25557291666667,52.762270988506735L124.36528645833334,53.64911284504193L124.52985677083333,54.597551025615864L124.64954427083335,54.42059010194062L124.84902343750001,51.943513076438336L124.93878906249999,50.042754614698126L124.9687109375,50.57333107302347L124.983671875,52.783638335608074L125.36268229166666,52.324052056476866L125.36766927083333,51.608248776086995L125.60205729166667,51.03040539304728L125.75665364583334,54.3968749780029L125.89130208333334,53.163283331514705L125.90626302083334,54.424803762991075L125.93119791666666,55.84034713944677L126.2852734375,53.72457691276671L126.34013020833333,53.88704785251324L126.58449218749999,55.12239306044879L126.86874999999999,54.033037976234525L127.09316406250001,54.670143447230025L127.29763020833333,55.57721198677509L127.36246093749999,54.45708789350147L127.36744791666668,53.02675207858598L127.47716145833333,50.111992947638946L127.556953125,47.458054086623235L128.1105078125,49.09881975327164L128.215234375,47.416075648513846L128.55933593749998,46.99735061263881L128.57429687500002,49.19672875454497L128.57928385416668,49.0350619931904L128.81865885416667,49.611560791903045L128.93834635416667,47.3555657924617L129.59662760416666,45.62902731067331L129.9955859375,46.18139631752343L130.06041666666667,48.04016908292653L130.37958333333333,45.22043607293858L130.70373697916668,46.92910633601679L130.8184375,48.22578431950118L131.23734375,47.22580234305761L131.2523046875,46.64225650697835L131.2772395833333,46.18127828337516L131.6113671875,47.86104460619731L131.7011328125,47.594063894173466L132.07515625,49.59612243888495L132.2696484375,51.35761321205997L133.05759114583333,50.42324796245659L133.26704427083334,51.970767319073865L133.27203125,53.17843277936609L133.59618489583335,51.744807662379785L133.62610677083333,51.81727559688206L133.75576822916668,52.838515999318446L133.86049479166667,52.09043914315021L133.89041666666668,53.293706664948736L134.678359375,52.231078134274554L135.87024739583333,48.93325576693894L135.935078125,48.24476952757497L136.10463541666667,49.76927090247116L136.22432291666667,47.58921703599789L136.294140625,45.67138586275076L136.43377604166668,44.07111176432883L137.00229166666665,47.572424095853414L137.17683593750002,47.67748471327628L137.36135416666667,45.320206629772926L137.81516927083334,45.45327687855419L138.4634765625,44.54835497895443L138.8375,41.953466650992006L139.286328125,42.66931433142583L139.30128906250002,44.1129488993706L140.034375,42.71013762106595L140.05432291666668,42.3102320639761L140.26876302083332,42.42862245926739L140.32361979166666,41.880603783665L140.37348958333334,41.77449249565328L140.54304687500002,43.49964507007822L140.59291666666667,45.17302268635482L140.722578125,44.4564802090496L140.9469921875,45.66595515791087L141.06169270833334,46.83068097295297L141.31602864583334,45.66185219542165L141.43571614583334,46.475218854528535L141.53046874999998,44.815026992060986L141.76485677083335,44.036072041387094L142.32838541666666,45.26093006998157L142.57274739583332,44.453641774018045L142.97669270833333,46.79887368022953L143.03154947916667,46.50379810407093L143.1312890625,43.73651650857419L143.49533854166665,42.195341978590754L143.77959635416667,43.40253779819205L144.313203125,43.716842631973726L145.0163671875,43.931161056113716L145.210859375,46.72588868389657L145.35548177083334,47.49417217217163L145.78934895833333,43.87330318386756L146.02872395833333,45.44885220903246L146.03869791666665,46.7095611317902L146.228203125,49.09728361866813L146.34290364583333,48.94109845230713L146.69697916666667,49.98089164868055L147.40014322916667,48.05191588040711L147.71930989583333,46.88688102048746L148.20803385416667,47.20406282392591L148.2479296875,47.86242395033049L149.00595052083332,44.801352716390696L149.1156640625,44.36279090941094L149.280234375,45.74902254820461L149.64927083333333,46.20853180871527L149.84376302083334,45.8599802016239L150.27264322916665,44.24570470610522L150.63669270833333,44.09355179564831L150.7613671875,44.6297430945059L150.82619791666667,44.54165095621232L150.87108072916666,45.057254514310216L151.26505208333333,45.031775599597495L151.55928385416667,44.40914690989781L152.12779947916667,41.49875182423062L152.20260416666667,44.244120894740036L152.59657552083334,44.2617801174854L153.0304427083333,44.193574113536044L153.47428385416669,43.62203080084393L153.6588020833333,44.52003164444312L153.83334635416668,42.4225979586307L154.2023828125,42.61817389052297L154.82076822916665,42.1411224421774L154.92549479166667,42.93215421685217L154.97037760416669,41.53139690166754L155.05016927083332,42.43090374776197L155.36434895833332,41.554872575857864L155.36933593749998,42.20538445655837L155.43915364583333,40.93739573778846L156.05255208333332,41.6151268742619L156.1074088541667,41.19721632498452L156.60610677083332,38.4951453676873L156.940234375,39.83487274445305L157.93763020833336,37.32923394698849L158.57097656250002,36.54313004411193L158.57596354166668,35.65599236089285L158.7205859375,35.64882178831545L158.73055989583332,33.129247070881426L159.22427083333335,33.98513643561784L159.97231770833332,33.772002061630694L160.29148437499998,32.33942479446428L160.32140625000002,30.517390090042465L160.351328125,31.76408171659539L160.37127604166668,33.03775116343661L160.37626302083333,31.657753914329483L160.94976562500003,30.585056099037136L161.2240494791667,32.68998668720303L161.82248697916665,34.446202884289036L162.10175781249998,32.74790498844872L162.59048177083332,34.72486990732147L162.6403515625,35.064688956589855L162.67526041666665,34.05137219204702L162.7650260416667,34.05488955301549L163.04928385416667,34.57508116602882L163.2687109375,35.37039123349072L163.69759114583334,37.123574144766934L164.15140624999998,37.0377121855698L164.16138020833333,37.2637232715264L164.32096354166669,36.63419510948776L164.41072916666667,36.3464278357024L165.82204427083335,36.302428388042046L165.95170572916666,35.95786860074762L166.1711328125,37.61638409006734L166.44541666666666,37.96867978108312L166.754609375,35.84742937319027L166.81944010416666,35.30401825769281L167.2782421875,38.21987142118117L167.42286458333334,35.32531109581033L167.61735677083334,33.85313863641943L169.01371093749998,34.67884557152506L169.40768229166667,35.17020079844993L169.53734375,33.56299525728079L169.64705729166664,33.30054550933905L169.74180989583334,30.90968176073888L169.866484375,29.956426056531797L169.94627604166666,32.00515289201641L170.0061197916667,34.517927103869376L170.22055989583333,36.82942805234257L170.55967447916666,37.9152507216775L170.86886718749997,39.831659292023346L171.90615885416668,38.49144575955991L171.94106770833332,39.5127635618679L171.9859505208333,39.61301151076931L172.23529947916666,40.50934383334952L172.25026041666666,37.63532124489964L172.35498697916665,38.29843879584863L172.50958333333332,35.847996004682265L172.6043359375,36.20878576897857L173.28256510416665,37.16442745118653L173.68651041666666,37.69319102720166L173.69149739583335,39.37728122253341L173.86105468749997,40.60527939489146L174.54427083333334,42.44760110519706L174.56920572916667,41.980662516346655L174.69886718749999,39.36736566146655L174.92826822916666,39.39574816725607L175.00307291666667,39.10592603097219L175.41200520833334,38.67533410770763L175.62644531249998,36.87837896759463L175.75610677083336,35.51743906342419L175.96057291666665,35.51761828690093L176.17501302083332,36.50087424200499L176.83329427083333,36.524723597694305L176.86820312499998,36.09159100219469L176.88815104166665,39.15491512555841L177.39682291666665,39.11540536238265L177.59630208333334,37.20763850642669L178.06507812499999,37.7344178517247L178.13489583333336,36.76949465776232L178.22466145833334,37.935280216426314L178.43411458333335,38.66361010560417L179.79057291666666,37.3283144980528L180.0548828125,38.787071551916874L180.64833333333334,39.24052628695782L181.55596354166667,40.63476845253881L181.74048177083336,37.904543001585715L182.2092578125,36.242254798855356L183.00218750000002,36.052334953115874L183.13184895833334,35.57168159343024L183.331328125,35.794806798790454L183.56072916666668,34.214733753937196L183.88488281250002,35.17456939173256L183.91979166666667,35.94441203658069L183.9596875,34.872299859772305L184.1990625,32.779584076174416L184.24394531250002,32.70537547992872L184.53817708333335,33.505766546937394L184.6030078125,32.6670806281074L185.32611979166666,32.45495046663084L185.38596354166668,32.90308033851415L185.55053385416667,35.099594964268995L185.75998697916668,37.24441185420443L186.084140625,38.47068345978408L186.45317708333332,37.37992925738978L186.68756510416668,35.23130994051898L187.01171875,35.17185090251039L187.15634114583332,34.8175182450917L187.221171875,36.05513456655078L187.5652734375,35.87559350255885L187.580234375,35.480447240456364L187.79467447916667,36.84676033442655L188.03903645833333,36.47073644915694L188.31830729166666,37.10795918542789L188.97658854166667,35.580199036395705L189.016484375,35.577050736222425L189.05139322916668,37.24717790858415L189.51518229166666,38.08293218660115L189.57502604166666,36.55951702062796L189.674765625,35.14642771797866L190.24328125,34.42285352739472L190.26322916666666,35.82545571522895L190.39787760416667,34.61288485663756L190.40785156249999,35.782500624818525L190.85667968750002,32.455800952545594L191.20576822916667,34.514409907071915L191.34041666666664,34.64153036592861L191.37532552083331,31.63703558801984L191.39028645833335,32.8428978675131L191.5149609375,32.837544479563654L192.19319010416666,31.400900641651152L192.6519921875,31.329623268409303L192.6869010416667,30.139580730841537L193.13572916666666,28.348745016513067L193.18061197916666,29.259063905442765L193.24045572916668,30.27139630981228L193.33520833333333,29.497702391198626L193.41998697916665,28.772721965095784L193.68928385416666,27.688326373904022L193.74912760416666,26.742802612104565L193.87380208333335,24.56027069648094L194.0583203125,25.817290264382454L194.34756510416665,24.02851729705372L194.57696614583332,26.089185051270643L194.67171875,26.360510873473345L194.70662760416667,25.631790764082965L194.93602864583332,26.98292916234439L195.1953515625,27.94839925086609L195.2103125,28.943401540316202L195.38485677083335,29.07109370438267L196.0331640625,30.579434122326667L196.29248697916668,29.16555830566421L196.29747395833334,30.88153004743837L196.40220052083333,30.62759053508387L196.676484375,27.71468915901121L197.11035156249997,28.242937877464655L197.11533854166666,27.797660728502265L197.30484375,27.44552890095499L197.47938802083334,26.054425797131028L197.52427083333333,24.504144133851643L197.7187630208333,26.354612663304795L197.963125,26.745395858878524L198.23740885416666,29.010218972705943L198.39699218750002,28.519492598321914L198.87075520833332,27.788023197481966L199.62877604166667,26.108874994905776L199.87313802083335,27.57752115673759L200.05266927083332,27.640112540979175L200.36186197916666,26.69774837598715L200.745859375,25.8822586394884L200.76082031250002,25.248362539591042L201.13983072916668,26.546597975689956L201.24455729166667,27.395415033842195L201.284453125,28.752722243298912L201.34928385416669,29.439452924372798L201.3592578125,29.679801983661854L201.38917968750002,30.116622457841466L201.87790364583333,29.146489776555505L201.88787760416665,26.963819102485477L202.32174479166667,26.99167557574978L202.33670572916668,26.685796572719706L202.47135416666666,28.000025497199083L203.32412760416668,28.31134475944616L203.35903645833332,31.103232847794615L203.68817708333333,30.55613604218394L203.71311197916665,27.381427371751784L204.2317578125,25.14648615949219L204.31653645833333,26.779489310637338L204.65066406249997,26.950001714530636L204.75040364583333,27.44613415050875L205.2840104166667,27.047567268270857L205.54333333333332,28.145678066389948L205.61813802083336,29.132856263916473L205.69294270833333,31.131607147181807L205.772734375,30.512787148925618L205.83756510416666,30.980523343199646L206.012109375,31.213995286607474L206.10686197916667,28.383126461824737L206.1417708333333,30.052719138612034L207.30373697916664,32.81827555806967L207.60295572916667,33.54082298961534L207.75256510416668,31.62550159513125L207.84731770833332,32.6873229309545L208.2911588541667,32.5460409207275L208.48565104166667,32.125570170218104L208.50559895833334,33.8982224499969L208.55048177083333,35.31863303483284L208.58040364583334,34.73265157909732L208.705078125,34.55160800609902L208.98933593750002,34.52854764189248L209.71743489583332,33.623811735014314L210.29592447916667,35.577685727573886L210.46049479166666,36.94063595778077L211.00407552083334,35.57527296821582L211.03399739583335,34.67618559064828L211.07888020833335,33.90851615290087L211.72220052083333,33.69965841308428L211.89175781249997,32.48782365239266L213.16842447916667,33.29739091161868L213.26317708333335,35.40971478829013L213.47761718750002,35.716202062034576L213.82171875,36.00767288166662L214.89391927083332,35.37960601989701L215.39760416666667,35.53716495449538L215.67188802083334,33.317813446388094L215.7466927083333,33.65197433279598L216.09079427083333,31.727948266109614L216.2603515625,29.124573481583376L216.62938802083332,29.58747185452894L216.70917968749998,29.130838852374044L216.76403645833335,29.524402058339334L216.93359375,31.44204569521533L217.33255208333335,31.297755130161242L217.6367578125,30.949834564526878L217.6417447916667,30.55187042055489L217.93098958333334,33.67467633641707L218.03072916666667,31.25215091142449L218.24516927083334,31.118277424284134L218.27010416666667,32.7753040756355L218.62916666666666,34.012498848464816L219.33233072916667,34.98042970036829L219.44703125,33.6793973542364L219.45201822916667,33.84911482654147L220.13024739583335,32.62694853404046L220.6089973958333,33.796191016449384L220.90322916666665,34.40215563324338L220.95808593750002,34.387054352162956L222.37438802083332,33.85736438902007L222.57885416666667,34.01804302647872L222.92794270833332,32.78417472045241L223.067578125,30.92777585563946L223.32191406249999,32.30296592313331L223.80565104166666,31.682965775729954L223.9602473958333,33.8341539818996L223.9851822916667,33.19204748950472L224.0699609375,30.880644175760473L224.32429687500002,31.119094186970436L224.51380208333333,31.487400701366134L225.53114583333334,28.427718075564176L225.89020833333333,28.854679659957153L226.41384114583335,30.370069848483485L226.84770833333334,30.354026973320412L226.90755208333331,30.338837718683966L227.06713541666667,31.379147774883517L227.20677083333334,30.745144723803552L227.64063802083334,27.888922497455038L227.69050781250002,29.91962283051955L227.7204296875,31.329296021532333L227.74037760416667,30.27863261640655L227.89497395833334,30.337222766346475L227.90494791666669,31.590426551182354L227.974765625,28.862163419227794L228.00468750000002,28.448178548127128L228.36873697916667,29.90733815119021L229.60052083333332,31.459124228567514L230.039375,32.743695321410506L230.16903645833332,35.39228026410536L230.61786458333336,35.09982361383503L230.75251302083333,36.78441695266582L231.1016015625,34.313881084052554L231.44071614583333,34.59938506872265L231.52050781250003,31.669874301091347L231.8496484375,33.45570422000856L232.08902343749997,34.44580859586166L232.16881510416667,35.17181000489798L232.3134375,36.70133274017456L232.43811197916668,36.409747760443715L232.53286458333335,36.8198295792605L233.25098958333334,38.37360627945789L233.29088541666664,40.43840267381154L233.61005208333333,38.897380936965256L233.74470052083333,39.26643168439807L234.41794270833333,36.276088450198856L234.4528515625,38.470817674554446L234.5426171875,37.921819648013134L235.05627604166665,38.41563637842838L235.17596354166668,35.65358509001105L235.22583333333333,35.646542331438475L235.29565104166667,34.594414303144916L235.60484375,34.27328600655938L236.07860677083335,34.5607857624874L236.40774739583335,34.16786253640086L236.472578125,32.9960309863345L236.63216145833334,31.052644560476537L236.72192708333333,31.63711435125239L236.771796875,31.624121017033154L236.8765234375,31.469817517952215L237.42010416666668,31.465710030291625L237.76919270833332,31.17870128850176L238.25791666666666,31.331449696499245L238.84139322916667,30.210927571817194L239.03089843749999,30.692740333404366L239.19546875,31.293422506642592L239.28024739583333,31.795709879662066L239.47473958333333,30.29391605098802L240.68158854166666,31.40680812706898L240.76138020833332,31.903845979236845L241.47950520833334,31.876644244428103L241.738828125,34.7623799161508L241.95825520833333,34.65383936806978L242.13279947916666,33.667748765558265L242.28240885416665,33.545301568481065L242.40209635416667,35.05218908693274L242.52178385416667,34.55642778789291L242.5616796875,35.803508223638964L242.61653645833331,38.00916867658481L242.62152343749997,36.87286590082053L242.9207421875,34.61687184430942L243.055390625,33.19580533687465L243.07533854166667,32.88165775031707L243.15014322916667,30.38621850973209L243.27980468750002,30.369316200470127L243.33466145833333,30.213809982885323L243.38951822916667,29.789249261973524L243.55408854166666,29.73474739679649L243.97798177083334,28.381110386298825L244.2422916666667,27.725559718654335L244.26223958333333,29.346196963162193L244.3270703125,30.35509672608273L244.7260286458333,32.97097071369071L244.74597656249998,33.686900681269975L244.880625,35.78971771756974L244.9255078125,34.876684318102576L245.35937499999997,33.2912276892032L245.39428385416667,33.699837950125115L245.6137109375,32.05756457625329L245.87802083333332,31.52351867356696L246.0525651041667,30.04152185099877L246.07251302083333,29.282353421504414L246.37671875,28.16350161601887L246.86045572916666,26.986707136755008L247.0499609375,28.22251677590273L247.27936197916668,30.384266911833276L247.28434895833334,31.06927671063795L247.29930989583335,30.875038858469694L247.57858072916667,32.10875586714126L247.99748697916667,31.42971118156997L248.1171744791667,32.71533134402038L248.36153645833332,31.927083055138997L248.43135416666667,30.41570893479717L249.16942708333332,30.467134864010415L249.31903645833336,29.681037616534166L249.6132682291667,28.8077992906655L249.86760416666667,28.058210904801133L250.894921875,28.50259799543288L250.93980468750001,27.570507546837003L251.03954427083332,28.240778962095515L251.19414062500002,27.52676008826457L251.20411458333334,26.06410344898916L251.87735677083333,24.77076264435804L252.05688802083336,27.950924587219344L252.27631510416666,28.740782458117188L252.570546875,26.45888665968133L252.63039062500002,25.00817565473765L253.19391927083333,22.651986778156385L253.3784375,23.531635124403333L253.5330338541667,22.163740560652176L253.707578125,23.759766874910145L254.45562500000003,22.438038893004453L254.50050781250002,21.270085072329554L254.63515625,23.588696507614276L254.784765625,24.945169552873594L254.95432291666665,23.15972309747022L255.17873697916667,24.659777458714633L255.2186328125,24.67803111806467L255.35826822916667,23.671370428575262L255.92179687499998,23.234446881942496L256.00158854166665,23.898540113335844L256.1162890625,24.21238315355168L256.31078125,22.420323819962643L256.39555989583334,22.617541075911433L256.8244401041666,22.616769899876026L256.8693229166667,21.930792920320073L257.03888020833335,21.718589590241532L257.6123828125,21.456609137271712L257.806875,23.011774430800042L258.0661979166667,23.622147721446606L259.50244791666665,23.125041840871567L259.6071744791667,24.176867684618646L260.3103385416667,25.12267019315587L260.52477864583335,24.922156668681037L260.7890885416667,24.66832568862896L260.8239973958333,25.85589059234068L260.9237369791667,27.26603761683081L261.0533984375,27.27795687794412L261.5022265625,25.898807298151784L261.76154947916666,27.508428634482172L262.0607682291667,26.640909187846997L262.0956770833333,25.56752420107032L262.24029947916665,24.180789030253667L262.504609375,23.459955019773773L262.52455729166667,25.730771892698716L262.5893880208333,25.56148847122477L262.6592057291667,24.817992499270108L262.77889322916667,25.28141544128865L262.83873697916664,25.46195686827499L262.9983203125,24.338838308048835L263.0332291666667,23.862478485887852L263.103046875,23.28779907590199L263.6665755208333,24.525958009026965L263.72143229166664,25.132619990248635L263.75135416666666,24.866905050120096L263.9558203125,25.91582900559947L263.97576822916665,25.21490419462123L264.0455859375,24.68625024260421L264.16028645833336,25.285714285714352L264.68890625,26.252385725880252L264.9033463541667,25.14016048892553L265.12277343750003,26.178441684935198L265.2125390625,25.461121773542988L265.2923307291667,24.3380599102152L265.4419401041667,26.788205399842468L265.7860416666667,26.89175323615122L266.4094140625,28.13101102492895L266.62385416666666,27.35688635065353L266.633828125,27.901523386235596L266.8183463541667,26.54389404720097L266.8233333333333,28.40445879643928L266.87320312500003,29.243737360377057L266.91309895833336,26.853466733927252L267.0377734375,27.891515791869182L267.4516927083333,29.162867818818714L267.47662760416665,30.03982423643243L267.5514322916667,28.869331042182363L268.51890625,30.17500111769096L269.207109375,29.960714512095308L270.26434895833336,31.43985540145063L270.6533333333333,32.436911671257235L270.9226302083333,32.66913714069492L271.0473046875,33.32528586347056L271.6756640625,33.952311184823735L272.079609375,35.146414836903524L272.32397135416664,35.76656968983349L272.3838151041667,34.41004041420756L272.47856770833334,35.7377057156272L272.7727994791667,35.05152728375141L273.3512890625,35.75122610294018L273.74526041666667,35.965360927012725L273.95471354166665,37.93378682267565L274.2788671875,37.03240696730377" style="fill: none;" fill="none"></path></g></g></g></g><g opacity="0.2"><g><g><g><path stroke="rgb(255, 112, 67)" stroke-width="2px" d="M25.15930989583333,198.66334953700846L25.28897135416667,157.01754751569513L25.403671875,263.58428887126485L25.767721354166664,120.82458148725529M26.206575520833333,130.96354815526368L26.29634114583333,214.47349412732825L26.470885416666665,116.25190463945506L26.480859374999998,157.01754751569513L26.52075520833333,149.55255479307183M27.607916666666664,214.47349412732825L27.822356770833334,136.6347260775751M28.096640625,174.82365226465035ZM28.281158854166666,185.7455208215117L28.495598958333336,142.7996474616208L28.535494791666668,157.01754751569513L28.849674479166666,174.82365226465035L28.934453124999997,165.36269938339166L28.964375,130.96354815526368L29.104010416666668,165.36269938339166L29.77725260416667,120.82458148725529L29.991692708333332,157.01754751569513L30.251015624999997,149.55255479307183L30.44052083333333,149.55255479307183L30.819531249999997,125.71285752071374L31.2234765625,136.6347260775751L31.497760416666665,93.6888527176842L31.51272135416667,142.7996474616208L31.5825390625,136.6347260775751L31.602486979166667,142.7996474616208L31.84186197916667,136.6347260775751L31.87677083333333,234.85631556544828L32.09619791666667,125.71285752071374L32.245807291666665,312.69508361520144M32.674687500000005,157.01754751569513L32.75447916666667,142.7996474616208L32.834270833333335,185.7455208215117L33.367877604166665,116.25190463945506L33.582317708333335,130.96354815526368M34.130885416666665,120.82458148725529L34.24059895833333,142.7996474616208L34.29545572916667,136.6347260775751L34.49493489583333,136.6347260775751M34.644544270833336,120.82458148725529L35.08838541666667,111.95653499508812L35.38760416666667,125.71285752071374M35.90126302083333,116.25190463945506L36.060846354166664,111.95653499508812L36.09076822916666,84.63161545881549L36.215442708333335,149.55255479307183L36.43985677083333,136.6347260775751L36.848789062499996,116.25190463945506L37.08317708333333,125.71285752071374L37.167955729166664,130.96354815526368L37.1779296875,125.71285752071374M37.3275390625,120.82458148725529L37.33252604166667,149.55255479307183L37.39236979166667,136.6347260775751L37.4173046875,116.25190463945506L37.56192708333333,136.6347260775751L37.636731770833336,149.55255479307183L38.32493489583333,136.6347260775751L38.59921875,142.7996474616208L39.73126302083333,149.55255479307183L40.08533854166667,157.01754751569513L40.100299479166665,142.7996474616208L40.38954427083333,142.7996474616208L40.69873697916667,165.36269938339166L41.04283854166666,149.55255479307183L41.11265625,149.55255479307183L41.122630208333334,149.55255479307183L41.12761718749999,116.25190463945506L41.41686197916666,149.55255479307183L42.28958333333333,185.7455208215117L42.98776041666667,214.47349412732825L43.237109374999996,165.36269938339166L43.59118489583333,214.47349412732825L43.850507812500005,116.25190463945506M43.99014322916666,142.7996474616208L44.52375,174.82365226465035L44.663385416666664,185.7455208215117L44.803020833333335,120.82458148725529L45.062343750000004,136.6347260775751L45.37153645833334,165.36269938339166L45.86026041666666,125.71285752071374L46.01485677083333,125.71285752071374L46.03979166666667,142.7996474616208L46.46368489583333,142.7996474616208L46.473658854166665,157.01754751569513L46.87760416666667,149.55255479307183L47.33640625,234.85631556544828L47.52591145833333,185.7455208215117L48.19416666666667,120.82458148725529L48.21411458333333,136.6347260775751L48.25401041666667,130.96354815526368L48.81255208333333,130.96354815526368L48.88236979166666,142.7996474616208L49.071875,136.6347260775751L49.131718750000005,111.95653499508812L49.341171875,165.36269938339166L49.72516927083333,116.25190463945506L50.119140625,149.55255479307183L50.12911458333333,87.5239313336385L50.39841145833333,125.71285752071374L50.538046875,111.95653499508812L51.061679687499996,149.55255479307183L51.59029947916667,142.7996474616208L51.6601171875,120.82458148725529L51.96432291666667,93.6888527176842L52.60764322916667,125.71285752071374L53.25595052083333,130.96354815526368L53.47537760416667,142.7996474616208L53.89927083333333,136.6347260775751L53.999010416666664,125.71285752071374L54.17854166666666,120.82458148725529L54.213450520833334,165.36269938339166L54.39298177083333,174.82365226465035L54.497708333333335,198.66334953700846L54.80690104166667,149.55255479307183L54.906640625,149.55255479307183L55.4601953125,157.01754751569513L55.510065104166664,136.6347260775751L55.85416666666667,136.6347260775751L55.91899739583334,120.82458148725529L55.948919270833336,174.82365226465035L56.01375,120.82458148725529L56.2980078125,174.82365226465035L56.412708333333335,107.90675277175853L56.731874999999995,185.7455208215117L57.45,149.55255479307183L57.719296875,120.82458148725529L57.86391927083333,130.96354815526368L58.13321614583334,136.6347260775751L58.32770833333333,142.7996474616208L58.34266927083333,130.96354815526368L58.40251302083333,125.71285752071374L58.557109375,125.71285752071374L59.115651041666666,130.96354815526368L59.67419270833333,157.01754751569513L59.80385416666667,214.47349412732825L60.37236979166667,111.95653499508812L60.412265624999996,174.82365226465035L60.61673177083333,142.7996474616208L61.075533854166665,130.96354815526368L61.39470052083333,125.71285752071374L61.63407552083333,125.71285752071374L61.748776041666666,130.96354815526368L62.087890625,136.6347260775751L62.137760416666666,104.07598741535259L62.152721354166665,96.98488421489715L62.227526041666664,107.90675277175853L62.39209635416666,125.71285752071374L63.2997265625,116.25190463945506L63.633854166666666,157.01754751569513L63.77348958333334,125.71285752071374L63.823359374999995,79.17877946594197L63.99790364583333,142.7996474616208L64.78584635416667,234.85631556544828L65.15986979166667,136.6347260775751L65.72838541666667,120.82458148725529L65.93285156249999,174.82365226465035L66.49638020833333,136.6347260775751L66.64100260416667,130.96354815526368L66.6659375,157.01754751569513L66.7108203125,157.01754751569513L67.15964843750001,136.6347260775751L67.174609375,96.98488421489715L67.31424479166667,130.96354815526368L67.36411458333333,198.66334953700846L67.82790364583333,149.55255479307183L67.99746093750001,130.96354815526368L68.2966796875,96.98488421489715L68.91506510416667,111.95653499508812L69.209296875,111.95653499508812L69.33895833333334,125.71285752071374L69.35391927083333,107.90675277175853L69.45864583333334,125.71285752071374L69.49355468750001,93.6888527176842L69.78279947916667,100.44176004913527L69.81272135416667,81.85275341132709L70.0919921875,198.66334953700846L71.11432291666667,125.71285752071374L71.39359375000001,96.98488421489715L71.55317708333334,120.82458148725529L71.98704427083334,116.25190463945506L72.15161458333334,130.96354815526368L72.5455859375,107.90675277175853L72.58049479166667,90.53936087980516L72.64532552083332,130.96354815526368L72.94454427083333,125.71285752071374L73.09415364583333,104.07598741535259L73.20885416666667,96.98488421489715L73.29861979166667,125.71285752071374L74.02173177083334,157.01754751569513L74.3408984375,116.25190463945506L75.09393229166666,104.07598741535259L75.22359375,107.90675277175853L76.18109375,130.96354815526368L76.21600260416666,96.98488421489715L76.77953125,312.69508361520144L76.7944921875,100.44176004913527L76.89921875,100.44176004913527L77.19345052083334,100.44176004913527L77.407890625,116.25190463945506L77.83178385416666,125.71285752071374L77.98638020833333,120.82458148725529L78.06617187500001,74.1157760935464L78.15095052083333,87.5239313336385L78.35042968750001,125.71285752071374L78.57983072916667,142.7996474616208L78.58481770833333,116.25190463945506L78.69453125,87.5239313336385L78.86907552083333,111.95653499508812L78.99873697916667,142.7996474616208L79.04361979166667,198.66334953700846L79.30294270833333,100.44176004913527L79.31790364583334,142.7996474616208L79.4874609375,96.98488421489715L79.50740885416667,100.44176004913527L79.62210937500001,130.96354815526368L79.65203125,214.47349412732825L79.66200520833333,111.95653499508812L79.89140625,104.07598741535259L80.30033854166666,107.90675277175853L80.39509114583333,149.55255479307183L80.43997395833333,67.14110989551847L80.77908854166667,130.96354815526368L80.7890625,107.90675277175853L81.08828125000001,136.6347260775751L81.8812109375,130.96354815526368L82.14552083333334,165.36269938339166L82.24526041666667,125.71285752071374L82.39985677083332,130.96354815526368L82.44473958333334,93.6888527176842L82.52951822916667,107.90675277175853L82.61429687500001,185.7455208215117L83.02322916666665,136.6347260775751L83.13792968749999,130.96354815526368L83.20774739583334,130.96354815526368L83.57678385416666,263.58428887126485L84.14529947916667,100.44176004913527L84.62404947916667,120.82458148725529L84.648984375,136.6347260775751L84.828515625,79.17877946594197L84.98311197916667,174.82365226465035L85.46684895833334,174.82365226465035L85.59651041666667,263.58428887126485L85.61645833333334,120.82458148725529L85.69624999999999,198.66334953700846L85.905703125,64.96087941186765L86.22486979166668,107.90675277175853L86.23983072916667,76.60206277677715L86.31962239583332,74.1157760935464L86.79837239583334,130.96354815526368L87.06268229166666,96.98488421489715L88.12490885416666,116.25190463945506L88.26454427083333,71.71378674331869L88.7931640625,111.95653499508812L89.1522265625,116.25190463945506L89.46141927083333,93.6888527176842L89.85040364583334,165.36269938339166L89.93518229166666,174.82365226465035L90.06983072916667,234.85631556544828L90.17455729166667,120.82458148725529L90.23440104166666,90.53936087980516L90.30920572916666,96.98488421489715L90.59346354166667,100.44176004913527L90.95751302083333,107.90675277175853L91.50608072916667,84.63161545881549L91.77039062499999,130.96354815526368L91.79033854166667,76.60206277677715L92.27906250000001,107.90675277175853L92.48851562499999,67.14110989551847L92.74285156250001,69.39056549462362L92.85755208333333,93.6888527176842L93.15178385416667,56.85468864768843L93.16674479166667,104.07598741535259L93.63552083333333,87.5239313336385L93.805078125,28.767913383427796L93.97962239583333,142.7996474616208L94.17411458333332,64.96087941186765L94.63291666666666,81.85275341132709L94.74263020833332,36.952220914099236L95.1515625,136.6347260775751L95.8547265625,58.795958027821946L96.1838671875,90.53936087980516L96.21877604166667,130.96354815526368L96.26365885416666,60.791918186457345L96.3484375,64.96087941186765L96.43820312499999,84.63161545881549L96.73243489583332,157.01754751569513L96.98178385416666,157.01754751569513L97.216171875,58.795958027821946L97.5303515625,67.14110989551847L97.904375,51.33096530519867L97.93429687499999,96.98488421489715L98.08390625,76.60206277677715L98.1287890625,51.33096530519867L98.17865885416667,71.71378674331869L98.6374609375,28.767913383427796M98.70229166666665,79.17877946594197L98.7870703125,74.1157760935464L99.10623697916667,125.71285752071374L99.20098958333334,56.85468864768843L99.87423177083333,142.7996474616208L100.18841145833333,76.60206277677715L100.4178125,30.067984722005374L100.63723958333333,51.33096530519867L101.06611979166667,142.7996474616208L101.35536458333333,96.98488421489715M102.1083984375,67.14110989551847L102.26798177083333,36.952220914099236L102.422578125,198.66334953700846L102.71680989583334,96.98488421489715L103.42994791666666,-1.2367052729759969L103.54963541666667,42.98581343750214L103.59451822916667,84.63161545881549L103.86880208333334,34.117766945334985L104.62183593750001,136.6347260775751L104.69165364583333,58.795958027821946L105.20032552083335,44.57805797374762L105.30505208333332,-12.158573829837401L105.96832031250001,30.067984722005374L106.3273828125,20.27977075068702L106.43709635416667,31.39235786155216L106.521875,64.96087941186765L106.75127604166667,58.795958027821946L106.92083333333333,51.33096530519867L107.24498697916667,54.96519267141596L107.64394531250001,53.12478010551053L108.02295572916667,56.85468864768843L108.20248697916666,69.39056549462362L108.75604166666666,214.47349412732825L108.76102864583333,90.53936087980516L108.9305859375,35.52082071487889L109.00040364583334,44.57805797374762L109.20985677083333,142.7996474616208L110.04268229166668,90.53936087980516L110.19727864583334,198.66334953700846L110.3668359375,-1.2367052729759969L110.90542968749999,47.87408947096058L111.07,87.5239313336385L111.159765625,74.1157760935464L111.16973958333332,34.117766945334985L111.28942708333334,32.741958667390485L111.2944140625,20.27977075068702L111.309375,62.84574025115152L111.40412760416667,96.98488421489715L111.578671875,58.795958027821946L111.73326822916667,28.767913383427796L111.92776041666666,46.20690902076926L111.97763020833332,9.685163283885348L112.42147135416666,116.25190463945506M112.63591145833334,125.71285752071374L112.67580729166667,93.6888527176842L112.8204296875,-3.7229919562067613L113.314140625,67.14110989551847L114.4661328125,34.117766945334985L114.60576822916667,41.42856613586856L114.65065104166666,31.39235786155216L114.79028645833333,36.952220914099236L114.96483072916666,36.952220914099236L115.02467447916668,74.1157760935464M116.01708333333333,1.3400114161887813L116.28638020833333,84.63161545881549L116.94964843749999,25.00498134960983L116.95463541666666,67.14110989551847L117.6528125,53.12478010551053L118.25623697916666,53.12478010551053L118.29114583333333,26.237219365599394L118.91451822916666,21.431859549949536L119.47804687499999,125.71285752071374L119.57279947916668,12.700592830051967L119.71243489583334,15.850084667931068L119.82214843749999,18.030315151581895L119.926875,7.74389390375185L120.26598958333332,25.00498134960983L120.53029947916666,30.067984722005374L120.81954427083333,93.6888527176842M122.10618489583334,46.20690902076926L122.19595052083334,76.60206277677715L122.3056640625,30.067984722005374L122.3355859375,62.84574025115152L122.87916666666668,22.602991999382137L122.948984375,130.96354815526368L123.00384114583333,26.237219365599394L123.27812499999999,234.85631556544828L123.33298177083334,28.767913383427796L123.36290364583333,44.57805797374762L123.65713541666666,32.741958667390485L123.79178385416667,116.25190463945506L123.906484375,90.53936087980516L124.25557291666667,64.96087941186765L124.36528645833334,71.71378674331869L124.52985677083333,74.1157760935464L124.64954427083335,51.33096530519867L124.84902343750001,18.030315151581895L124.93878906249999,22.602991999382137L124.9687109375,60.791918186457345L124.983671875,111.95653499508812L125.36268229166666,44.57805797374762L125.36766927083333,39.904810633502535L125.60205729166667,41.42856613586856L125.75665364583334,198.66334953700846L125.89130208333334,34.117766945334985L125.90626302083334,81.85275341132709L125.93119791666666,87.5239313336385L126.2852734375,23.793808266146776L126.34013020833333,56.85468864768843L126.58449218749999,81.85275341132709L126.86874999999999,36.952220914099236L127.09316406250001,67.14110989551847L127.29763020833333,74.1157760935464L127.36246093749999,36.952220914099236L127.36744791666668,31.39235786155216L127.47716145833333,11.681123442520732L127.556953125,11.681123442520732L128.1105078125,87.5239313336385L128.215234375,22.602991999382137L128.55933593749998,39.904810633502535L128.57429687500002,107.90675277175853L128.57928385416668,46.20690902076926L128.81865885416667,60.791918186457345L128.93834635416667,15.850084667931068L129.59662760416666,20.27977075068702L129.9955859375,56.85468864768843L130.06041666666667,93.6888527176842L130.37958333333333,7.74389390375185L130.70373697916668,87.5239313336385L130.8184375,76.60206277677715L131.23734375,31.39235786155216L131.2523046875,36.952220914099236L131.2772395833333,38.41313658970192L131.6113671875,87.5239313336385L131.7011328125,42.98581343750214L132.07515625,100.44176004913527L132.2696484375,93.6888527176842L133.05759114583333,35.52082071487889L133.26704427083334,87.5239313336385L133.27203125,79.17877946594197L133.59618489583335,30.067984722005374L133.62610677083333,53.12478010551053L133.75576822916668,74.1157760935464L133.86049479166667,39.904810633502535L133.89041666666668,79.17877946594197L134.678359375,35.52082071487889L135.87024739583333,6.792847409062334L135.935078125,36.952220914099236L136.10463541666667,84.63161545881549L136.22432291666667,16.931814077070722L136.294140625,18.030315151581895L136.43377604166668,20.27977075068702L137.00229166666665,214.47349412732825L137.17683593750002,49.581446786436686L137.36135416666667,12.700592830051967L137.81516927083334,47.87408947096058L138.4634765625,30.067984722005374L138.8375,6.792847409062334L139.286328125,56.85468864768843L139.30128906250002,76.60206277677715L140.034375,21.431859549949536L140.05432291666668,35.52082071487889L140.26876302083332,44.57805797374762L140.32361979166666,32.741958667390485L140.37348958333334,39.904810633502535L140.54304687500002,84.63161545881549L140.59291666666667,84.63161545881549L140.722578125,32.741958667390485L140.9469921875,71.71378674331869L141.06169270833334,71.71378674331869L141.31602864583334,27.491268032840516L141.43571614583334,62.84574025115152L141.53046874999998,20.27977075068702L141.76485677083335,31.39235786155216L142.32838541666666,71.71378674331869L142.57274739583332,31.39235786155216L142.97669270833333,111.95653499508812L143.03154947916667,41.42856613586856L143.1312890625,6.792847409062334L143.49533854166665,19.146116165144026L143.77959635416667,69.39056549462362L144.313203125,49.581446786436686L145.0163671875,47.87408947096058L145.210859375,136.6347260775751L145.35548177083334,62.84574025115152L145.78934895833333,-1.2367052729759969L146.02872395833333,81.85275341132709L146.03869791666665,74.1157760935464L146.228203125,116.25190463945506L146.34290364583333,46.20690902076926L146.69697916666667,71.71378674331869L147.40014322916667,20.27977075068702L147.71930989583333,28.767913383427796L148.20803385416667,53.12478010551053L148.2479296875,60.791918186457345L149.00595052083332,4.928216111069664L149.1156640625,36.952220914099236L149.280234375,76.60206277677715L149.64927083333333,54.96519267141596L149.84376302083334,39.904810633502535L150.27264322916665,20.27977075068702L150.63669270833333,41.42856613586856L150.7613671875,54.96519267141596L150.82619791666667,42.98581343750214L150.87108072916666,54.96519267141596L151.26505208333333,44.57805797374762L151.55928385416667,34.117766945334985L152.12779947916667,3.111401180696682L152.20260416666667,130.96354815526368L152.59657552083334,44.57805797374762L153.0304427083333,42.98581343750214L153.47428385416669,34.117766945334985L153.6588020833333,62.84574025115152L153.83334635416668,12.700592830051967L154.2023828125,46.20690902076926L154.82076822916665,34.117766945334985L154.92549479166667,58.795958027821946L154.97037760416669,20.27977075068702L155.05016927083332,60.791918186457345L155.36434895833332,27.491268032840516L155.36933593749998,54.96519267141596L155.43915364583333,21.431859549949536L156.05255208333332,54.96519267141596L156.1074088541667,34.117766945334985L156.60610677083332,2.220170561262113L156.940234375,69.39056549462362L157.93763020833336,3.111401180696682L158.57097656250002,23.793808266146776L158.57596354166668,21.431859549949536L158.7205859375,35.52082071487889L158.73055989583332,-1.2367052729759969L159.22427083333335,51.33096530519867L159.97231770833332,30.067984722005374L160.29148437499998,10.67611510209169L160.32140625000002,4.013985361573933L160.351328125,58.795958027821946L160.37127604166668,60.791918186457345L160.37626302083333,10.67611510209169L160.94976562500003,13.734945507214922L161.2240494791667,87.5239313336385L161.82248697916665,76.60206277677715L162.10175781249998,7.74389390375185L162.59048177083332,84.63161545881549L162.6403515625,41.42856613586856L162.67526041666665,18.030315151581895L162.7650260416667,34.117766945334985L163.04928385416667,44.57805797374762L163.2687109375,51.33096530519867L163.69759114583334,79.17877946594197L164.15140624999998,35.52082071487889L164.16138020833333,41.42856613586856L164.32096354166669,26.237219365599394L164.41072916666667,31.39235786155216L165.82204427083335,35.52082071487889L165.95170572916666,30.067984722005374L166.1711328125,76.60206277677715L166.44541666666666,44.57805797374762L166.754609375,5.854397927479369L166.81944010416666,26.237219365599394L167.2782421875,136.6347260775751L167.42286458333334,-2.903885723167318L167.61735677083334,11.681123442520732L169.01371093749998,51.33096530519867L169.40768229166667,44.57805797374762L169.53734375,9.685163283885348L169.64705729166664,28.767913383427796L169.74180989583334,-2.0751990831048808L169.866484375,14.784622484217307L169.94627604166666,84.63161545881549L170.0061197916667,107.90675277175853L170.22055989583333,100.44176004913527L170.55967447916666,60.791918186457345L170.86886718749997,87.5239313336385L171.90615885416668,18.030315151581895L171.94106770833332,60.791918186457345L171.9859505208333,41.42856613586856L172.23529947916666,58.795958027821946L172.25026041666666,-0.38816938217968344L172.35498697916665,51.33096530519867L172.50958333333332,2.220170561262113L172.6043359375,42.98581343750214L173.28256510416665,56.85468864768843L173.68651041666666,47.87408947096058L173.69149739583335,79.17877946594197L173.86105468749997,67.14110989551847L174.54427083333334,87.5239313336385L174.56920572916667,34.117766945334985L174.69886718749999,4.013985361573933L174.92826822916666,39.904810633502535L175.00307291666667,34.117766945334985L175.41200520833334,31.39235786155216L175.62644531249998,10.67611510209169L175.75610677083336,14.784622484217307L175.96057291666665,35.52082071487889L176.17501302083332,56.85468864768843L176.83329427083333,36.952220914099236L176.86820312499998,28.767913383427796L176.88815104166665,149.55255479307183L177.39682291666665,38.41313658970192L177.59630208333334,9.685163283885348L178.06507812499999,47.87408947096058L178.13489583333336,21.431859549949536L178.22466145833334,62.84574025115152L178.43411458333335,53.12478010551053L179.79057291666666,16.931814077070722L180.0548828125,71.71378674331869L180.64833333333334,47.87408947096058L181.55596354166667,71.71378674331869L181.74048177083336,1.3400114161887813L182.2092578125,11.681123442520732L183.00218750000002,32.741958667390485L183.13184895833334,27.491268032840516L183.331328125,39.904810633502535L183.56072916666668,10.67611510209169L183.88488281250002,54.96519267141596L183.91979166666667,51.33096530519867L183.9596875,18.030315151581895L184.1990625,3.111401180696682L184.24394531250002,31.39235786155216L184.53817708333335,49.581446786436686L184.6030078125,19.146116165144026L185.32611979166666,28.767913383427796L185.38596354166668,41.42856613586856L185.55053385416667,93.6888527176842L185.75998697916668,93.6888527176842L186.084140625,64.96087941186765L186.45317708333332,20.27977075068702L186.68756510416668,4.928216111069664L187.01171875,34.117766945334985L187.15634114583332,28.767913383427796L187.221171875,62.84574025115152L187.5652734375,32.741958667390485L187.580234375,28.767913383427796L187.79467447916667,67.14110989551847L188.03903645833333,30.067984722005374L188.31830729166666,49.581446786436686L188.97658854166667,12.700592830051967L189.016484375,35.52082071487889L189.05139322916668,76.60206277677715L189.51518229166666,54.96519267141596L189.57502604166666,13.734945507214922L189.674765625,13.734945507214922L190.24328125,22.602991999382137L190.26322916666666,67.14110989551847L190.39787760416667,15.850084667931068L190.40785156249999,60.791918186457345L190.85667968750002,-9.955746662840415L191.20576822916667,87.5239313336385L191.34041666666664,36.952220914099236L191.37532552083331,-7.682228608068057L191.39028645833335,58.795958027821946L191.5149609375,32.741958667390485L192.19319010416666,9.685163283885348L192.6519921875,30.067984722005374L192.6869010416667,11.681123442520732L193.13572916666666,2.220170561262113L193.18061197916666,47.87408947096058L193.24045572916668,51.33096530519867L193.33520833333333,16.931814077070722L193.41998697916665,16.931814077070722L193.68928385416666,10.67611510209169L193.74912760416666,11.681123442520732L193.87380208333335,-6.124981306434435L194.0583203125,53.12478010551053L194.34756510416665,-2.0751990831048808L194.57696614583332,79.17877946594197L194.67171875,31.39235786155216L194.70662760416667,13.734945507214922L194.93602864583332,56.85468864768843L195.1953515625,47.87408947096058L195.2103125,49.581446786436686L195.38485677083335,31.39235786155216L196.0331640625,64.96087941186765L196.29248697916668,7.74389390375185L196.29747395833334,71.71378674331869L196.40220052083333,26.237219365599394L196.676484375,-10.697658154234695L197.11035156249997,38.41313658970192L197.11533854166666,20.27977075068702L197.30484375,21.431859549949536L197.47938802083334,4.928216111069664L197.52427083333333,1.3400114161887813L197.7187630208333,71.71378674331869L197.963125,34.117766945334985L198.23740885416666,90.53936087980516L198.39699218750002,20.27977075068702L198.87075520833332,15.850084667931068L199.62877604166667,1.3400114161887813L199.87313802083335,60.791918186457345L200.05266927083332,28.767913383427796L200.36186197916666,11.681123442520732L200.745859375,12.700592830051967L200.76082031250002,14.784622484217307L201.13983072916668,54.96519267141596L201.24455729166667,44.57805797374762L201.284453125,58.795958027821946L201.34928385416669,42.98581343750214L201.3592578125,34.117766945334985L201.38917968750002,38.41313658970192L201.87790364583333,13.734945507214922L201.88787760416665,-3.7229919562067613L202.32174479166667,27.491268032840516L202.33670572916668,21.431859549949536L202.47135416666666,56.85468864768843L203.32412760416668,34.117766945334985L203.35903645833332,120.82458148725529L203.68817708333333,21.431859549949536L203.71311197916665,-13.589974029057728L204.2317578125,-6.124981306434435L204.31653645833333,64.96087941186765L204.65066406249997,30.067984722005374L204.75040364583333,36.952220914099236L205.2840104166667,20.27977075068702L205.54333333333332,51.33096530519867L205.61813802083336,49.581446786436686L205.69294270833333,81.85275341132709L205.772734375,20.27977075068702L205.83756510416666,39.904810633502535L206.012109375,35.52082071487889L206.10686197916667,-9.205984110434063L206.1417708333333,69.39056549462362L207.30373697916664,120.82458148725529L207.60295572916667,47.87408947096058L207.75256510416668,4.013985361573933L207.84731770833332,54.96519267141596L208.2911588541667,30.067984722005374L208.48565104166667,25.00498134960983L208.50559895833334,76.60206277677715L208.55048177083333,67.14110989551847L208.58040364583334,25.00498134960983L208.705078125,31.39235786155216L208.98933593750002,34.117766945334985L209.71743489583332,19.146116165144026L210.29592447916667,84.63161545881549L210.46049479166666,67.14110989551847L211.00407552083334,14.784622484217307L211.03399739583335,20.27977075068702L211.07888020833335,21.431859549949536L211.72220052083333,30.067984722005374L211.89175781249997,13.734945507214922L213.16842447916667,49.581446786436686L213.26317708333335,90.53936087980516L213.47761718750002,41.42856613586856L213.82171875,41.42856613586856L214.89391927083332,25.00498134960983L215.39760416666667,38.41313658970192L215.67188802083334,2.220170561262113L215.7466927083333,39.904810633502535L216.09079427083333,4.013985361573933L216.2603515625,-6.124981306434435L216.62938802083332,38.41313658970192L216.70917968749998,21.431859549949536L216.76403645833335,36.952220914099236L216.93359375,79.17877946594197L217.33255208333335,28.767913383427796L217.6367578125,25.00498134960983L217.6417447916667,23.793808266146776L217.93098958333334,149.55255479307183L218.03072916666667,-2.0751990831048808L218.24516927083334,28.767913383427796L218.27010416666667,71.71378674331869L218.62916666666666,60.791918186457345L219.33233072916667,54.96519267141596L219.44703125,13.734945507214922L219.45201822916667,36.952220914099236L220.13024739583335,13.734945507214922L220.6089973958333,58.795958027821946L220.90322916666665,46.20690902076926L220.95808593750002,34.117766945334985L222.37438802083332,25.00498134960983L222.57885416666667,36.952220914099236L222.92794270833332,13.734945507214922L223.067578125,4.013985361573933L223.32191406249999,62.84574025115152L223.80565104166666,21.431859549949536L223.9602473958333,90.53936087980516L223.9851822916667,22.602991999382137L224.0699609375,-1.2367052729759969L224.32429687500002,35.52082071487889L224.51380208333333,38.41313658970192L225.53114583333334,-11.431881305321772L225.89020833333333,36.952220914099236L226.41384114583335,64.96087941186765L226.84770833333334,30.067984722005374L226.90755208333331,30.067984722005374L227.06713541666667,53.12478010551053L227.20677083333334,20.27977075068702L227.64063802083334,-9.955746662840415L227.69050781250002,81.85275341132709L227.7204296875,62.84574025115152L227.74037760416667,13.734945507214922L227.89497395833334,31.39235786155216L227.90494791666669,58.795958027821946L227.974765625,-7.682228608068057L228.00468750000002,21.431859549949536L228.36873697916667,62.84574025115152L229.60052083333332,67.14110989551847L230.039375,60.791918186457345L230.16903645833332,116.25190463945506L230.61786458333336,30.067984722005374L230.75251302083333,76.60206277677715L231.1016015625,0.4706520425000722L231.44071614583333,39.904810633502535L231.52050781250003,-6.907883195287413L231.8496484375,76.60206277677715L232.08902343749997,54.96519267141596L232.16881510416667,49.581446786436686L232.3134375,71.71378674331869L232.43811197916668,31.39235786155216L232.53286458333335,44.57805797374762L233.25098958333334,74.1157760935464L233.29088541666664,93.6888527176842L233.61005208333333,15.850084667931068L233.74470052083333,46.20690902076926L234.41794270833333,-2.903885723167318L234.4528515625,96.98488421489715L234.5426171875,28.767913383427796L235.05627604166665,47.87408947096058L235.17596354166668,-1.2367052729759969L235.22583333333333,35.52082071487889L235.29565104166667,18.030315151581895L235.60484375,28.767913383427796L236.07860677083335,39.904810633502535L236.40774739583335,27.491268032840516L236.472578125,14.784622484217307L236.63216145833334,3.111401180696682L236.72192708333333,42.98581343750214L236.771796875,31.39235786155216L236.8765234375,28.767913383427796L237.42010416666668,31.39235786155216L237.76919270833332,26.237219365599394L238.25791666666666,34.117766945334985L238.84139322916667,12.700592830051967L239.03089843749999,39.904810633502535L239.19546875,42.98581343750214L239.28024739583333,41.42856613586856L239.47473958333333,7.74389390375185L240.68158854166666,54.96519267141596L240.76138020833332,41.42856613586856L241.47950520833334,31.39235786155216L241.738828125,130.96354815526368L241.95825520833333,32.741958667390485L242.13279947916666,18.030315151581895L242.28240885416665,31.39235786155216L242.40209635416667,69.39056549462362L242.52178385416667,26.237219365599394L242.5616796875,62.84574025115152L242.61653645833331,96.98488421489715L242.62152343749997,19.146116165144026L242.9207421875,3.111401180696682L243.055390625,11.681123442520732L243.07533854166667,27.491268032840516L243.15014322916667,-3.7229919562067613L243.27980468750002,30.067984722005374L243.33466145833333,27.491268032840516L243.38951822916667,22.602991999382137L243.55408854166666,28.767913383427796L243.97798177083334,7.74389390375185L244.2422916666667,16.931814077070722L244.26223958333333,67.14110989551847L244.3270703125,51.33096530519867L244.7260286458333,111.95653499508812L244.74597656249998,47.87408947096058L244.880625,90.53936087980516L244.9255078125,20.27977075068702L245.35937499999997,9.685163283885348L245.39428385416667,41.42856613586856L245.6137109375,7.74389390375185L245.87802083333332,22.602991999382137L246.0525651041667,7.74389390375185L246.07251302083333,16.931814077070722L246.37671875,10.67611510209169L246.86045572916666,8.70788020306706L247.0499609375,54.96519267141596L247.27936197916668,87.5239313336385L247.28434895833334,44.57805797374762L247.29930989583335,27.491268032840516L247.57858072916667,58.795958027821946L247.99748697916667,20.27977075068702L248.1171744791667,60.791918186457345L248.36153645833332,19.146116165144026L248.43135416666667,7.74389390375185L249.16942708333332,31.39235786155216L249.31903645833336,16.931814077070722L249.6132682291667,14.784622484217307L249.86760416666667,15.850084667931068L250.894921875,36.952220914099236L250.93980468750001,12.700592830051967L251.03954427083332,41.42856613586856L251.19414062500002,15.850084667931068L251.20411458333334,4.013985361573933L251.87735677083333,4.928216111069664L252.05688802083336,149.55255479307183L252.27631510416666,44.57805797374762L252.570546875,-5.333331729437592L252.63039062500002,3.111401180696682L253.19391927083333,-9.955746662840415L253.3784375,41.42856613586856L253.5330338541667,1.3400114161887813L253.707578125,60.791918186457345L254.45562500000003,2.220170561262113L254.50050781250002,3.111401180696682L254.63515625,87.5239313336385L254.784765625,54.96519267141596L254.95432291666665,-2.903885723167318L255.17873697916667,58.795958027821946L255.2186328125,25.00498134960983L255.35826822916667,7.74389390375185L255.92179687499998,15.850084667931068L256.00158854166665,36.952220914099236L256.1162890625,30.067984722005374L256.31078125,-3.7229919562067613L256.39555989583334,26.237219365599394L256.8244401041666,22.602991999382137L256.8693229166667,10.67611510209169L257.03888020833335,18.030315151581895L257.6123828125,16.931814077070722L257.806875,58.795958027821946L258.0661979166667,35.52082071487889L259.50244791666665,14.784622484217307L259.6071744791667,46.20690902076926L260.3103385416667,44.57805797374762L260.52477864583335,21.431859549949536L260.7890885416667,20.27977075068702L260.8239973958333,51.33096530519867L260.9237369791667,58.795958027821946L261.0533984375,27.491268032840516L261.5022265625,4.928216111069664L261.76154947916666,64.96087941186765L262.0607682291667,12.700592830051967L262.0956770833333,8.70788020306706L262.24029947916665,3.111401180696682L262.504609375,11.681123442520732L262.52455729166667,87.5239313336385L262.5893880208333,22.602991999382137L262.6592057291667,12.700592830051967L262.77889322916667,34.117766945334985L262.83873697916664,28.767913383427796L262.9983203125,6.792847409062334L263.0332291666667,15.850084667931068L263.103046875,13.734945507214922L263.6665755208333,51.33096530519867L263.72143229166664,36.952220914099236L263.75135416666666,20.27977075068702L263.9558203125,47.87408947096058L263.97576822916665,13.734945507214922L264.0455859375,15.850084667931068L264.16028645833336,36.952220914099236L264.68890625,46.20690902076926L264.9033463541667,7.74389390375185L265.12277343750003,47.87408947096058L265.2125390625,13.734945507214922L265.2923307291667,6.792847409062334L265.4419401041667,96.98488421489715L265.7860416666667,28.767913383427796L266.4094140625,54.96519267141596L266.62385416666666,14.784622484217307L266.633828125,38.41313658970192L266.8183463541667,5.854397927479369L266.8233333333333,74.1157760935464L266.87320312500003,46.20690902076926L266.91309895833336,-6.124981306434435L267.0377734375,49.581446786436686L267.4516927083333,56.85468864768843L267.47662760416665,47.87408947096058L267.5514322916667,10.67611510209169L268.51890625,58.795958027821946L269.207109375,26.237219365599394L270.26434895833336,64.96087941186765L270.6533333333333,53.12478010551053L270.9226302083333,36.952220914099236L271.0473046875,46.20690902076926L271.6756640625,46.20690902076926L272.079609375,60.791918186457345L272.32397135416664,47.87408947096058L272.3838151041667,13.734945507214922L272.47856770833334,64.96087941186765L272.7727994791667,23.793808266146776L273.3512890625,49.581446786436686L273.74526041666667,39.904810633502535L273.95471354166665,87.5239313336385L274.2788671875,22.602991999382137" style="fill: none;" fill="none"></path></g></g></g></g></g></g><g transform="translate(30, 177)" clip-path="url(#clip_1)"><clipPath id="clip_1"><rect width="299" height="23"></rect></clipPath><g><g><line x1="0" y1="0" x2="0" y2="5" style="visibility: inherit;" fill="rgb(0, 0, 0)" stroke="rgb(204, 204, 204)" stroke-width="1px"></line><line x1="24.934895833333332" y1="0" x2="24.934895833333332" y2="5" style="visibility: inherit;" fill="rgb(0, 0, 0)" stroke="rgb(204, 204, 204)" stroke-width="1px"></line><line x1="49.869791666666664" y1="0" x2="49.869791666666664" y2="5" style="visibility: inherit;" fill="rgb(0, 0, 0)" stroke="rgb(204, 204, 204)" stroke-width="1px"></line><line x1="74.8046875" y1="0" x2="74.8046875" y2="5" style="visibility: inherit;" fill="rgb(0, 0, 0)" stroke="rgb(204, 204, 204)" stroke-width="1px"></line><line x1="99.73958333333333" y1="0" x2="99.73958333333333" y2="5" style="visibility: inherit;" fill="rgb(0, 0, 0)" stroke="rgb(204, 204, 204)" stroke-width="1px"></line><line x1="124.67447916666667" y1="0" x2="124.67447916666667" y2="5" style="visibility: inherit;" fill="rgb(0, 0, 0)" stroke="rgb(204, 204, 204)" stroke-width="1px"></line><line x1="149.609375" y1="0" x2="149.609375" y2="5" style="visibility: inherit;" fill="rgb(0, 0, 0)" stroke="rgb(204, 204, 204)" stroke-width="1px"></line><line x1="174.54427083333334" y1="0" x2="174.54427083333334" y2="5" style="visibility: inherit;" fill="rgb(0, 0, 0)" stroke="rgb(204, 204, 204)" stroke-width="1px"></line><line x1="199.47916666666666" y1="0" x2="199.47916666666666" y2="5" style="visibility: inherit;" fill="rgb(0, 0, 0)" stroke="rgb(204, 204, 204)" stroke-width="1px"></line><line x1="224.4140625" y1="0" x2="224.4140625" y2="5" style="visibility: inherit;" fill="rgb(0, 0, 0)" stroke="rgb(204, 204, 204)" stroke-width="1px"></line><line x1="249.34895833333334" y1="0" x2="249.34895833333334" y2="5" style="visibility: inherit;" fill="rgb(0, 0, 0)" stroke="rgb(204, 204, 204)" stroke-width="1px"></line><line x1="274.28385416666663" y1="0" x2="274.28385416666663" y2="5" style="visibility: inherit;" fill="rgb(0, 0, 0)" stroke="rgb(204, 204, 204)" stroke-width="1px"></line><line x1="299.21875" y1="0" x2="299.21875" y2="5" style="visibility: inherit;" fill="rgb(0, 0, 0)" stroke="rgb(204, 204, 204)" stroke-width="1px"></line></g><g transform="translate(0, 8)"><text x="0" y="0" dx="0em" dy="0.95em" style="text-anchor: middle; visibility: hidden; font-family: Roboto, sans-serif; font-size: 12px; font-weight: 200;" fill="rgb(33, 33, 33)" stroke="none" stroke-width="1px">-5k</text><text x="24.934895833333332" y="0" dx="0em" dy="0.95em" style="text-anchor: middle; visibility: inherit; font-family: Roboto, sans-serif; font-size: 12px; font-weight: 200;" fill="rgb(33, 33, 33)" stroke="none" stroke-width="1px">0</text><text x="49.869791666666664" y="0" dx="0em" dy="0.95em" style="text-anchor: middle; visibility: inherit; font-family: Roboto, sans-serif; font-size: 12px; font-weight: 200;" fill="rgb(33, 33, 33)" stroke="none" stroke-width="1px">5k</text><text x="74.8046875" y="0" dx="0em" dy="0.95em" style="text-anchor: middle; visibility: inherit; font-family: Roboto, sans-serif; font-size: 12px; font-weight: 200;" fill="rgb(33, 33, 33)" stroke="none" stroke-width="1px">10k</text><text x="99.73958333333333" y="0" dx="0em" dy="0.95em" style="text-anchor: middle; visibility: inherit; font-family: Roboto, sans-serif; font-size: 12px; font-weight: 200;" fill="rgb(33, 33, 33)" stroke="none" stroke-width="1px">15k</text><text x="124.67447916666667" y="0" dx="0em" dy="0.95em" style="text-anchor: middle; visibility: inherit; font-family: Roboto, sans-serif; font-size: 12px; font-weight: 200;" fill="rgb(33, 33, 33)" stroke="none" stroke-width="1px">20k</text><text x="149.609375" y="0" dx="0em" dy="0.95em" style="text-anchor: middle; visibility: inherit; font-family: Roboto, sans-serif; font-size: 12px; font-weight: 200;" fill="rgb(33, 33, 33)" stroke="none" stroke-width="1px">25k</text><text x="174.54427083333334" y="0" dx="0em" dy="0.95em" style="text-anchor: middle; visibility: inherit; font-family: Roboto, sans-serif; font-size: 12px; font-weight: 200;" fill="rgb(33, 33, 33)" stroke="none" stroke-width="1px">30k</text><text x="199.47916666666666" y="0" dx="0em" dy="0.95em" style="text-anchor: middle; visibility: inherit; font-family: Roboto, sans-serif; font-size: 12px; font-weight: 200;" fill="rgb(33, 33, 33)" stroke="none" stroke-width="1px">35k</text><text x="224.4140625" y="0" dx="0em" dy="0.95em" style="text-anchor: middle; visibility: inherit; font-family: Roboto, sans-serif; font-size: 12px; font-weight: 200;" fill="rgb(33, 33, 33)" stroke="none" stroke-width="1px">40k</text><text x="249.34895833333334" y="0" dx="0em" dy="0.95em" style="text-anchor: middle; visibility: inherit; font-family: Roboto, sans-serif; font-size: 12px; font-weight: 200;" fill="rgb(33, 33, 33)" stroke="none" stroke-width="1px">45k</text><text x="274.28385416666663" y="0" dx="0em" dy="0.95em" style="text-anchor: middle; visibility: inherit; font-family: Roboto, sans-serif; font-size: 12px; font-weight: 200;" fill="rgb(33, 33, 33)" stroke="none" stroke-width="1px">50k</text><text x="299.21875" y="0" dx="0em" dy="0.95em" style="text-anchor: middle; visibility: hidden; font-family: Roboto, sans-serif; font-size: 12px; font-weight: 200;" fill="rgb(33, 33, 33)" stroke="none" stroke-width="1px">55k</text></g><line x1="0" y1="0" x2="299.21875" y2="0" fill="rgb(0, 0, 0)" stroke="rgb(204, 204, 204)" stroke-width="1px"></line></g></g></g></g></svg>